<?xml version="1.0" encoding="UTF-8"?>
<svg id="Layer_1" data-name="Layer 1" xmlns="http://www.w3.org/2000/svg" viewBox="0 0 677.83 73.93">
  <defs>
    <style>
      .cls-1 {
        fill: #fff;
        stroke: #06b6d4;
        stroke-miterlimit: 10;
        stroke-width: 2px;
      }
    </style>
  </defs>
  <path class="cls-1" d="m2.71,1.1h55.22c1.11.13,1.66.7,1.66,1.71v12.89c0,1.14-.57,1.71-1.71,1.71h-19.63v53.81c0,1.14-.57,1.71-1.71,1.71h-12.5c-1.14,0-1.71-.57-1.71-1.71V17.41H2.71c-1.14,0-1.71-.57-1.71-1.71V2.76c.13-1.11.7-1.66,1.71-1.66Z"/>
  <path class="cls-1" d="m64.09,1h12.5c1.11.13,1.66.7,1.66,1.71v6.98c0,1.14-.57,1.71-1.71,1.71h-12.45c-1.14,0-1.71-.57-1.71-1.71V2.66c.13-1.11.7-1.66,1.71-1.66Zm0,14.31h12.5c1.11.13,1.66.7,1.66,1.71v54.2c0,1.14-.57,1.71-1.71,1.71h-12.45c-1.14,0-1.71-.57-1.71-1.71V16.97c.13-1.11.7-1.66,1.71-1.66Z"/>
  <path class="cls-1" d="m120.87,15.85h16.85c7.16,0,11.77,3.43,13.82,10.3.49,1.17.73,2.83.73,4.98v40.09c0,1.14-.55,1.71-1.66,1.71h-12.89c-1.14,0-1.71-.57-1.71-1.71v-30.42c0-6.02-1.82-9.03-5.47-9.03-3.87,0-5.81,2.18-5.81,6.54v32.91c0,1.14-.57,1.71-1.71,1.71h-12.16c-1.14,0-1.71-.57-1.71-1.71v-30.03c0-5.79-1.9-8.69-5.71-8.69,0-.26-.39-.39-1.17-.39h-4.39v39.11c0,1.14-.57,1.71-1.71,1.71h-12.5c-1.14,0-1.71-.57-1.71-1.71V17.85c.13-1.11.7-1.66,1.71-1.66h31.84l2.15,1.81h-.68c.55-1.43,1.86-2.15,3.91-2.15Z"/>
  <path class="cls-1" d="m170.73,15.21h28.61c8.4,0,13.13,5.21,14.21,15.62v20.21c0,1.14-.59,1.71-1.76,1.71h-40.09c0,2.28,2.26,3.58,6.79,3.91h33.3c1.17,0,1.76.7,1.76,2.1,0,8.14-4.96,12.86-14.89,14.16h-29.39c-6.54,0-10.89-3.39-13.04-10.16-.52-1.2-.78-2.91-.78-5.13v-27.88c0-6.18,2.64-10.51,7.91-12.99,2.31-1.04,4.77-1.56,7.37-1.56Zm1.17,20.56h25.39v.59c0-2.6-1.92-4.23-5.76-4.88h-14.94c-2.57,0-4.13,1.43-4.69,4.3Z"/>
  <path class="cls-1" d="m231.32,15.55h28.08c7.32,0,12.13,3.4,14.4,10.21.29,1.76.44,3.17.44,4.25,0,1.14-.57,1.71-1.71,1.71h-36.87c-1.53,0-2.29.65-2.29,1.95s.91,2.03,2.73,2.29h22.9c10.38,0,15.58,5.68,15.58,17.04v4c0,7.19-2.86,12.11-8.59,14.75-1.73.78-3.81,1.17-6.25,1.17h-27c-10.35-.98-15.53-5.68-15.53-14.11v-.39c.13-1.11.7-1.66,1.71-1.66h36.47c1.76,0,2.64-.65,2.64-1.95v-1.56c-.36-.75-.99-1.12-1.9-1.12h-23.34c-10.38,0-15.58-5.66-15.58-16.99v-5.57c1.63-9.34,6.33-14.01,14.11-14.01Z"/>
  <polygon class="cls-1" points="320.29 14.82 320.29 30.79 306.57 30.79 306.57 72.59 291.19 72.59 291.19 30.79 277.47 30.79 277.47 14.82 291.19 14.82 291.19 1 306.57 1 306.57 14.82 320.29 14.82"/>
  <path class="cls-1" d="m325.41,15.85h26.51c1.11.13,1.66.7,1.66,1.71v12.7c0,1.14-.57,1.71-1.71,1.71h-6.54c-3.22,0-5.06,1.99-5.52,5.96v33.3c0,1.14-.57,1.71-1.71,1.71h-12.7c-1.14,0-1.71-.57-1.71-1.71V17.51c.13-1.11.7-1.66,1.71-1.66Z"/>
  <path class="cls-1" d="m400.8,15.55h13.48l1.46.78c-.26,16.73-.39,28.79-.39,36.18v6.93c0,7.71-4.83,12.21-14.5,13.48h-29.05c-8.72,0-13.57-5.08-14.55-15.23V17.6c.13-1.11.7-1.66,1.71-1.66h14.75l-.54,2.88v31.1c0,4.72,2.23,7.08,6.69,7.08h12.16c4.72,0,7.08-1.74,7.08-5.22V17.21c.13-1.11.7-1.66,1.71-1.66Z"/>
  <path class="cls-1" d="m434.01,14.92h28.76c8.43,0,13.18,5.22,14.26,15.67v5.96c0,1.14-.59,1.71-1.76,1.71h-13.28c-.62-.62-1.5-2.34-2.64-5.18-1.4-1.2-2.85-1.81-4.35-1.81h-15.14c-3.26,0-4.88,2.25-4.88,6.74v12.16c0,4.26,2.25,6.4,6.74,6.4h13.18c3.84-.65,5.76-2.98,5.76-6.98h14.65c1.14.13,1.71.7,1.71,1.71v6.25c0,7.42-3.43,12.29-10.3,14.6-1.79.52-3.35.78-4.69.78h-29.54c-6.58,0-10.94-3.4-13.09-10.21-.52-1.2-.78-2.93-.78-5.18v-28.03c0-6.18,2.65-10.53,7.96-13.04,2.31-1.04,4.79-1.56,7.42-1.56Z"/>
  <polygon class="cls-1" points="522.59 14.82 522.59 30.79 508.87 30.79 508.87 72.59 493.49 72.59 493.49 30.79 479.76 30.79 479.76 14.82 493.49 14.82 493.49 1 508.87 1 508.87 14.82 522.59 14.82"/>
  <path class="cls-1" d="m541.19,15.55h27.54c7.58,0,12.37,4.04,14.36,12.11v31.98c0,7.49-4.66,11.91-13.96,13.28h-30.86c-5.34,0-9.26-3.47-11.77-10.4-.52-1.2-.78-2.9-.78-5.08v-27.88c0-6.51,3.47-10.92,10.4-13.23,1.2-.52,2.9-.78,5.08-.78Zm.59,21.63v13.72c.46,3.71,2.07,5.57,4.83,5.57h14.84c3.71,0,5.57-2.21,5.57-6.64v-10.84c0-4.92-2.57-7.37-7.71-7.37h-10.16c-4.92,0-7.37,1.86-7.37,5.57Z"/>
  <path class="cls-1" d="m587.91,15.85h26.51c1.11.13,1.66.7,1.66,1.71v12.7c0,1.14-.57,1.71-1.71,1.71h-6.54c-3.22,0-5.06,1.99-5.52,5.96v33.3c0,1.14-.57,1.71-1.71,1.71h-12.7c-1.14,0-1.71-.57-1.71-1.71V17.51c.13-1.11.7-1.66,1.71-1.66Z"/>
  <path class="cls-1" d="m633.57,15.55h28.08c7.32,0,12.12,3.4,14.4,10.21.29,1.76.44,3.17.44,4.25,0,1.14-.57,1.71-1.71,1.71h-36.87c-1.53,0-2.29.65-2.29,1.95s.91,2.03,2.73,2.29h22.9c10.38,0,15.58,5.68,15.58,17.04v4c0,7.19-2.87,12.11-8.59,14.75-1.73.78-3.81,1.17-6.25,1.17h-27c-10.35-.98-15.53-5.68-15.53-14.11v-.39c.13-1.11.7-1.66,1.71-1.66h36.47c1.76,0,2.64-.65,2.64-1.95v-1.56c-.36-.75-.99-1.12-1.9-1.12h-23.34c-10.38,0-15.58-5.66-15.58-16.99v-5.57c1.63-9.34,6.33-14.01,14.11-14.01Z"/>
</svg>