<?xml version="1.0" encoding="UTF-8"?>
<svg xmlns="http://www.w3.org/2000/svg" viewBox="0 0 455.4 570.11">
  <defs>
    <style>
      .cls-1 {
        fill: #231f20;
      }
    </style>
  </defs>
  <g id="Layer_5_copy" data-name="Layer 5 copy">
    <g>
      <path class="cls-1" d="m309.83,297.06l-15.46-25.83c-.29-.82-.43-1.68-.43-2.55v-128.44c0-18.47-14.97-33.44-33.43-33.44h-73.62c-18.47,0-33.44,14.97-33.44,33.44v128.44c0,.87-.14,1.73-.42,2.55l-15.47,25.83c-.28.82-.42,1.68-.42,2.55v18.01c0,4.33,3.52,7.85,7.85,7.85h157.42c4.33,0,7.85-3.52,7.85-7.85v-18.01c0-.87-.14-1.73-.43-2.55Zm-86.13-47.82c-24.88,0-45.05-20.17-45.05-45.05s20.17-45.05,45.05-45.05,45.05,20.17,45.05,45.05-20.17,45.05-45.05,45.05Z"/>
      <path class="cls-1" d="m302.41,328.97h-157.42c-6.26,0-11.35-5.09-11.35-11.35v-18.01c0-1.26.2-2.5.61-3.68l.12-.35,15.44-25.78c.09-.36.14-.74.14-1.12v-128.44c0-20.37,16.57-36.94,36.94-36.94h73.62c20.36,0,36.93,16.57,36.93,36.94v128.44c0,.38.05.75.14,1.1l15.43,25.78.12.33c.42,1.18.63,2.43.63,3.72v18.01c0,6.26-5.09,11.35-11.35,11.35Zm-161.63-30.48c-.09.36-.14.73-.14,1.12v18.01c0,2.4,1.95,4.35,4.35,4.35h157.42c2.4,0,4.35-1.95,4.35-4.35v-18.01c0-.38-.05-.75-.14-1.1l-15.43-25.78-.12-.33c-.42-1.18-.63-2.43-.63-3.72v-128.44c0-16.51-13.43-29.94-29.93-29.94h-73.62c-16.51,0-29.94,13.43-29.94,29.94v128.44c0,1.26-.2,2.5-.61,3.68l-.12.35-15.44,25.78Zm82.92-45.75c-26.77,0-48.55-21.78-48.55-48.55s21.78-48.55,48.55-48.55,48.55,21.78,48.55,48.55-21.78,48.55-48.55,48.55Zm0-90.09c-22.91,0-41.55,18.64-41.55,41.55s18.64,41.55,41.55,41.55,41.55-18.64,41.55-41.55-18.64-41.55-41.55-41.55Z"/>
    </g>
  </g>
  <g id="Layer_4_copy" data-name="Layer 4 copy">
    <path class="cls-1" d="m223.7,242.83c-21.3,0-38.64-17.33-38.64-38.64s17.33-38.64,38.64-38.64,38.64,17.33,38.64,38.64-17.33,38.64-38.64,38.64Zm0-71.27c-18,0-32.64,14.64-32.64,32.64s14.64,32.64,32.64,32.64,32.64-14.64,32.64-32.64-14.64-32.64-32.64-32.64Z"/>
    <path class="cls-1" d="m223.7,180.28c-2.49,0-4.5-2.01-4.5-4.5v-5.26c0-2.49,2.01-4.5,4.5-4.5s4.5,2.01,4.5,4.5v5.26c0,2.49-2.02,4.5-4.5,4.5Z"/>
    <path class="cls-1" d="m257.37,208.69h-5.26c-2.49,0-4.5-2.01-4.5-4.5s2.01-4.5,4.5-4.5h5.26c2.49,0,4.5,2.01,4.5,4.5s-2.01,4.5-4.5,4.5Z"/>
    <path class="cls-1" d="m223.7,242.36c-2.49,0-4.5-2.01-4.5-4.5v-5.26c0-2.49,2.01-4.5,4.5-4.5s4.5,2.01,4.5,4.5v5.26c0,2.49-2.02,4.5-4.5,4.5Z"/>
    <path class="cls-1" d="m195.3,208.69h-5.26c-2.49,0-4.5-2.01-4.5-4.5s2.01-4.5,4.5-4.5h5.26c2.49,0,4.5,2.01,4.5,4.5s-2.01,4.5-4.5,4.5Z"/>
    <path class="cls-1" d="m232.01,216.79c-1.13,0-2.27-.42-3.14-1.28l-8.31-8.1c-.86-.83-1.35-1.98-1.36-3.17-.01-1.2.45-2.35,1.29-3.2l14.42-14.71c1.74-1.78,4.59-1.8,6.36-.06,1.77,1.74,1.8,4.59.06,6.36l-11.26,11.49,5.08,4.95c1.78,1.73,1.82,4.58.08,6.36-.88.9-2.05,1.36-3.22,1.36Z"/>
    <path class="cls-1" d="m165.39,252.79h-31.93c-5.93,0-10.76-4.83-10.76-10.76v-75.68c0-5.93,4.83-10.76,10.76-10.76h31.93c2.21,0,4,1.79,4,4v89.2c0,2.21-1.79,4-4,4Zm-31.93-89.2c-1.52,0-2.76,1.24-2.76,2.76v75.68c0,1.52,1.24,2.76,2.76,2.76h27.93v-81.2h-27.93Z"/>
    <path class="cls-1" d="m313.94,252.79h-31.93c-2.21,0-4-1.79-4-4v-89.2c0-2.21,1.79-4,4-4h31.93c5.93,0,10.76,4.83,10.76,10.76v75.68c0,5.93-4.83,10.76-10.76,10.76Zm-27.93-8h27.93c1.52,0,2.76-1.24,2.76-2.76v-75.68c0-1.52-1.24-2.76-2.76-2.76h-27.93v81.2Z"/>
    <path class="cls-1" d="m163.6,139.27c-.96,0-1.92-.34-2.69-1.04l-16.35-14.86c-6.31-5.73-6.78-15.53-1.04-21.84,2.78-3.06,6.58-4.85,10.71-5.05,4.12-.2,8.08,1.22,11.14,4l16.35,14.86c1.64,1.49,1.76,4.02.27,5.65l-15.42,16.97c-.79.87-1.87,1.31-2.96,1.31Zm-8.64-34.81c-.12,0-.24,0-.36,0-1.99.1-3.83.96-5.17,2.44-2.77,3.05-2.54,7.77.5,10.54l13.39,12.17,10.04-11.05-13.39-12.17c-1.38-1.26-3.15-1.94-5.01-1.94Z"/>
    <path class="cls-1" d="m251.66,117.45h-55.93c-2.21,0-4-1.79-4-4v-15.85c0-5.34,4.34-9.68,9.68-9.68h44.57c5.34,0,9.68,4.34,9.68,9.68v15.85c0,2.21-1.79,4-4,4Zm-51.93-8h47.93v-11.85c0-.93-.75-1.68-1.68-1.68h-44.57c-.93,0-1.68.75-1.68,1.68v11.85Z"/>
    <path class="cls-1" d="m283.8,139.27c-1.09,0-2.17-.44-2.96-1.31l-15.42-16.97c-1.49-1.63-1.37-4.16.27-5.65l16.35-14.86c6.31-5.73,16.11-5.27,21.84,1.05,5.73,6.31,5.26,16.11-1.04,21.84l-16.36,14.86c-.77.7-1.73,1.04-2.69,1.04Zm-9.77-20.7l10.04,11.05,13.39-12.17c3.04-2.77,3.27-7.5.5-10.54-2.77-3.05-7.5-3.27-10.54-.5l-13.39,12.17Z"/>
    <g>
      <path class="cls-1" d="m251.66,117.45h-55.93c-2.21,0-4-1.79-4-4v-15.85c0-5.34,4.34-9.68,9.68-9.68h44.57c5.34,0,9.68,4.34,9.68,9.68v15.85c0,2.21-1.79,4-4,4Zm-51.93-8h47.93v-11.85c0-.93-.75-1.68-1.68-1.68h-44.57c-.93,0-1.68.75-1.68,1.68v11.85Z"/>
      <path class="cls-1" d="m251.66,117.95h-55.93c-2.48,0-4.5-2.02-4.5-4.5v-15.85c0-5.61,4.57-10.18,10.18-10.18h44.57c5.61,0,10.18,4.57,10.18,10.18v15.85c0,2.48-2.02,4.5-4.5,4.5Zm-50.25-29.53c-5.06,0-9.18,4.12-9.18,9.18v15.85c0,1.93,1.57,3.5,3.5,3.5h55.93c1.93,0,3.5-1.57,3.5-3.5v-15.85c0-5.06-4.12-9.18-9.18-9.18h-44.57Zm46.75,21.53h-48.93v-12.35c0-1.2.98-2.18,2.18-2.18h44.57c1.2,0,2.18.98,2.18,2.18v12.35Zm-47.93-1h46.93v-11.35c0-.65-.53-1.18-1.18-1.18h-44.57c-.65,0-1.18.53-1.18,1.18v11.35Z"/>
    </g>
    <rect class="cls-1" x="206.84" y="76.8" width="33.58" height="8.6" rx="1.18" ry="1.18"/>
  </g>
  <g id="Layer_9" data-name="Layer 9">
    <g>
      <path class="cls-1" d="m218.85,36.87c-2.8.41-4.24,2.46-4.51,6.69v30.82h18.72v-30.89c0-4.24-1.43-6.15-4.37-6.63-.41-.07-.75-.07-1.16-.07,1.3,1.84,2.05,4.17,2.12,6.63.14,5.26-2.32,10.31-5.74,10.31-3.69,0-6.42-4.1-6.28-10.31.07-2.6.82-4.85,2.12-6.63-.34,0-.61,0-.89.07Z"/>
      <path class="cls-1" d="m262.4,35.9C261.01,16.75,245.36,1.27,226.19.08c-22.57-1.41-41.3,16.48-41.3,38.73,0,15.45,9.03,28.78,22.1,35.04.78.37,1.64.54,2.5.54h.74v-31.03c.34-6.01,3.01-9.77,7.92-10.52,2.05-.27,3.96,0,5.53.75,1.71-.75,3.62-1.09,5.6-.75,5.19.82,7.86,4.58,7.86,10.66v30.89h.75c.86,0,1.72-.17,2.49-.54,13.89-6.64,23.22-21.27,22-37.94Z"/>
      <path class="cls-1" d="m223.77,49.64l.07-.07c.2-.2.48-.61.75-1.16.68-1.3,1.02-3.01.96-4.85-.07-2.05-.75-3.83-1.91-5.05-1.16,1.16-1.84,2.87-1.91,4.99-.07,2.46.41,4.17,1.09,5.26.34.55.68.82.96.89Z"/>
    </g>
  </g>
</svg>